<?xml version="1.0" encoding="UTF-8"?>
<svg version="1.1" xmlns="http://www.w3.org/2000/svg" width="512" height="512">
<path d="M0 0 C0.90054108 -0.00701431 1.80108215 -0.01402863 2.72891235 -0.02125549 C5.61750351 -0.03865402 8.50588962 -0.0451074 11.39453125 -0.046875 C12.38190277 -0.04754974 13.36927429 -0.04822449 14.38656616 -0.04891968 C28.87791389 -0.03317157 42.94723376 0.41971425 57.20703125 3.203125 C58.5525708 3.44458252 58.5525708 3.44458252 59.92529297 3.69091797 C103.53015094 11.58117647 144.66693596 31.27077443 178.20703125 60.203125 C178.95210938 60.83734375 179.6971875 61.4715625 180.46484375 62.125 C193.96982958 73.93614015 206.64121868 86.68672728 217.20703125 101.203125 C218.06352191 102.35307331 218.92029558 103.50281089 219.77734375 104.65234375 C225.81737334 112.84246758 231.20070739 121.34692118 236.20703125 130.203125 C236.60921875 130.91033691 237.01140625 131.61754883 237.42578125 132.34619141 C250.45120535 155.48158336 259.20004586 180.65274909 264.51953125 206.640625 C264.66688721 207.35951904 264.81424316 208.07841309 264.96606445 208.8190918 C267.92124422 224.36711142 268.61264796 239.7871904 268.58203125 255.578125 C268.58181976 256.58825653 268.58160828 257.59838806 268.58139038 258.63912964 C268.54764197 274.82957001 267.58004234 290.32197994 264.20703125 306.203125 C264.0251123 307.11094727 263.84319336 308.01876953 263.65576172 308.95410156 C255.15610893 350.86749215 235.94927987 389.732084 208.20703125 422.203125 C207.58828125 422.97914063 206.96953125 423.75515625 206.33203125 424.5546875 C195.69727257 437.4493324 180.46412766 445.12935369 164.20703125 448.203125 C159.903684 448.5899706 155.63587228 448.61360624 151.31716919 448.59080505 C150.0753941 448.59619059 148.833619 448.60157613 147.55421436 448.60712487 C144.14210513 448.61887414 140.73049012 448.61737243 137.31840158 448.60995805 C133.62503619 448.60519907 129.93172155 448.6177602 126.2383728 448.62797546 C119.01625522 448.64511567 111.79422482 448.64601344 104.57209219 448.64076256 C98.69815703 448.63671067 92.82424751 448.63817648 86.95031357 448.64351082 C86.11227175 448.64425924 85.27422993 448.64500766 84.41079291 448.64577876 C82.70796355 448.64731034 81.0051342 448.64884869 79.30230485 448.65039373 C63.35641638 448.6641015 47.41057705 448.65869323 31.46468972 448.64720852 C16.89931101 448.63727809 2.33405937 448.65021659 -12.23129974 448.67414271 C-27.21346485 448.69856671 -42.19557087 448.70813347 -57.17775548 448.70148998 C-65.57853143 448.69800507 -73.97920972 448.70018156 -82.37997055 448.71774101 C-89.53127835 448.73250436 -96.68241969 448.73304471 -103.83372436 448.7156701 C-107.47707579 448.70719153 -111.12013038 448.7049327 -114.76346588 448.72032166 C-118.72550684 448.7368486 -122.68709599 448.72194439 -126.6491394 448.70433044 C-127.78302247 448.71393545 -128.91690553 448.72354046 -130.08514869 448.73343652 C-149.90476279 448.55323395 -167.03320393 439.65287844 -181.015625 426.0390625 C-193.24413932 413.12255555 -202.9797645 397.57921328 -211.79296875 382.203125 C-212.43661377 381.08067383 -212.43661377 381.08067383 -213.09326172 379.93554688 C-227.82769172 353.89226053 -237.44731721 324.79541722 -241.79296875 295.203125 C-242.05787109 293.40053223 -242.05787109 293.40053223 -242.328125 291.56152344 C-243.93579235 279.82379626 -244.19148817 268.16299775 -244.16796875 256.328125 C-244.16775726 255.34166992 -244.16754578 254.35521484 -244.16732788 253.33886719 C-244.13310693 237.29686368 -243.12518184 221.94008568 -239.79296875 206.203125 C-239.51211426 204.81528809 -239.51211426 204.81528809 -239.22558594 203.39941406 C-232.16741278 169.05939024 -217.75916626 135.35975381 -196.79296875 107.203125 C-196.38369141 106.64512207 -195.97441406 106.08711914 -195.55273438 105.51220703 C-182.34127981 87.55122391 -167.34567643 70.99075037 -149.79296875 57.203125 C-149.04273438 56.5740625 -148.2925 55.945 -147.51953125 55.296875 C-107.41564643 21.8997832 -52.31333861 0.27446629 0 0 Z M-58.79296875 26.203125 C-60.0456958 26.57945068 -60.0456958 26.57945068 -61.32373047 26.96337891 C-82.03168551 33.34105173 -101.9151647 42.97120235 -119.79296875 55.203125 C-120.39109375 55.60740723 -120.98921875 56.01168945 -121.60546875 56.42822266 C-130.4863364 62.46443739 -138.74562488 69.10193539 -146.79296875 76.203125 C-147.29538086 76.64237305 -147.79779297 77.08162109 -148.31542969 77.53417969 C-193.35026929 117.06052883 -222.54807644 174.4666218 -227.79296875 234.203125 C-227.94915625 237.31525992 -228.0020632 240.42337119 -228.03125 243.5390625 C-228.04099854 244.40793091 -228.05074707 245.27679932 -228.06079102 246.17199707 C-228.23640315 265.89236183 -227.82731957 284.82034007 -223.79296875 304.203125 C-223.6110498 305.12593262 -223.42913086 306.04874023 -223.24169922 306.99951172 C-216.26835238 341.85378236 -200.43523565 375.69110082 -178.22509766 403.41113281 C-176.81340562 405.17755278 -175.43399306 406.96605537 -174.0546875 408.7578125 C-164.7175296 420.62934183 -152.96675274 429.50804059 -137.79296875 432.203125 C-128.86503473 433.06610798 -119.86927558 432.89841066 -110.90897322 432.85674834 C-107.26878778 432.84532818 -103.62871761 432.86294977 -99.98855591 432.87664795 C-92.87674383 432.89877239 -85.76519698 432.89412772 -78.65337491 432.87958474 C-72.8686566 432.86824968 -67.08401214 432.86677995 -61.29928589 432.87220383 C-60.05991812 432.87335307 -60.05991812 432.87335307 -58.79551262 432.87452554 C-57.11652158 432.87612432 -55.43753056 432.87774539 -53.75853956 432.8793885 C-38.04910643 432.89361437 -22.33981967 432.87730308 -6.63041055 432.85038666 C6.82166151 432.82805075 20.27351777 432.83193177 33.72558594 432.85498047 C49.38238413 432.88179454 65.03905435 432.89224137 80.69587231 432.87691915 C82.36836431 432.87532656 84.04085634 432.8737547 85.71334839 432.87220383 C86.53604597 432.87143245 87.35874355 432.87066107 88.20637137 432.86986632 C93.97787323 432.8655661 99.74929328 432.87279947 105.52078247 432.88460159 C112.56334022 432.89868766 119.60561967 432.89469939 126.64814591 432.86819787 C130.23498598 432.85514103 133.82136364 432.84976609 137.40819931 432.86644363 C159.27408783 432.95974682 176.03797917 431.52660462 192.62890625 415.92578125 C221.24222603 385.43534652 239.67475907 344.71332706 248.20703125 304.203125 C248.52244873 302.7804834 248.52244873 302.7804834 248.84423828 301.32910156 C260.11471811 248.91200061 250.47813836 191.10620433 225.20703125 144.203125 C224.8605957 143.55037598 224.51416016 142.89762695 224.15722656 142.22509766 C216.31588618 127.51451353 207.12228594 113.82203106 196.20703125 101.203125 C195.54832031 100.43355469 194.88960938 99.66398437 194.2109375 98.87109375 C182.97438145 86.06269432 170.94345496 74.2880445 157.20703125 64.203125 C156.07808605 63.35552063 154.94917982 62.50786434 153.8203125 61.66015625 C117.02859617 34.38753309 70.13483868 16.40847691 24.08984375 15.96484375 C22.82003914 15.95015297 22.82003914 15.95015297 21.52458191 15.93516541 C-6.28483597 15.67993988 -32.03248518 18.12142948 -58.79296875 26.203125 Z " fill="#000000" transform="translate(243.79296875,31.796875)"/>
<path d="M0 0 C0.8699057 0.00021149 1.7398114 0.00042297 2.63607788 0.00064087 C24.5548511 0.05351516 45.71333436 2.83660423 66.6875 9.375 C67.4707666 9.61557129 68.2540332 9.85614258 69.06103516 10.10400391 C111.23697906 23.29724325 150.82386757 50.05839592 177.6875 85.375 C178.17718262 86.0153418 178.66686523 86.65568359 179.17138672 87.31542969 C187.39896537 98.14711578 194.50262262 109.26137573 200.6875 121.375 C201.04682617 122.07447754 201.40615234 122.77395508 201.77636719 123.49462891 C215.53184765 150.5935593 224.63290515 182.00673522 224.92578125 212.52734375 C224.9355751 213.37661438 224.94536896 214.22588501 224.95545959 215.10089111 C225.13051786 234.22766748 224.84615767 252.61611671 220.6875 271.375 C220.48382813 272.33245117 220.28015625 273.28990234 220.0703125 274.27636719 C214.04158778 301.93593292 202.37666033 329.42324059 185.6875 352.375 C184.96949219 353.37660156 184.25148438 354.37820313 183.51171875 355.41015625 C173.92861254 368.50210273 164.82686658 379.99146834 148.6875 384.375 C144.52240342 384.91695163 140.4457681 384.98194116 136.25 384.9375 C135.18845703 384.96134766 134.12691406 384.98519531 133.03320312 385.00976562 C125.42014945 384.99533785 125.42014945 384.99533785 121.9609375 382.06640625 C120.22366513 378.39468642 120.61253419 376.24487693 121.6875 372.375 C123.58283875 369.79044715 124.57576517 369.41224494 127.6875 368.375 C129.07442243 368.27451341 130.46507469 368.2205669 131.85546875 368.19921875 C132.66693359 368.17537109 133.47839844 368.15152344 134.31445312 368.12695312 C136.00170801 368.08448218 137.6892795 368.05296511 139.37695312 368.03320312 C146.61699942 367.78787453 151.73100099 365.92792783 157.234375 361.17578125 C184.37787516 330.51902663 200.44507682 292.63078942 206.6875 252.375 C206.7913501 251.72120361 206.8952002 251.06740723 207.00219727 250.39379883 C211.13277131 219.76955181 207.36842249 187.53388966 197.6875 158.375 C197.44773437 157.65135254 197.20796875 156.92770508 196.9609375 156.18212891 C193.44146987 145.78567954 188.82900352 136.05757399 183.6875 126.375 C183.34348145 125.715 182.99946289 125.055 182.64501953 124.375 C169.9405849 100.11515652 151.29831807 78.13669806 129.6875 61.375 C129.15592285 60.95637695 128.6243457 60.53775391 128.07666016 60.10644531 C84.44030895 25.9320257 28.99764504 12.33953644 -25.74609375 18.0234375 C-63.44311616 22.9112245 -98.56936285 38.67739332 -128.3046875 62.078125 C-136.34864458 68.22078313 -136.34864458 68.22078313 -140.4375 68.875 C-144.07122062 68.24304859 -145.18544804 67.36862869 -147.3125 64.375 C-148.36708128 61.07064534 -148.70860891 59.27929514 -147.3046875 56.07421875 C-144.55234189 52.34506028 -141.20243508 49.87338838 -137.5 47.125 C-136.7380835 46.55289795 -135.97616699 45.9807959 -135.19116211 45.39135742 C-128.44031487 40.37348359 -121.54171531 35.67702521 -114.3125 31.375 C-113.63638672 30.9718457 -112.96027344 30.56869141 -112.26367188 30.15332031 C-91.67557177 18.01138095 -69.93425144 9.80376131 -46.625 4.625 C-45.29130371 4.32686401 -45.29130371 4.32686401 -43.93066406 4.02270508 C-29.29772643 0.92707183 -14.90919897 -0.0336921 0 0 Z " fill="#000000" transform="translate(255.3125,63.625)"/>
<path d="M0 0 C2.68601216 1.90848233 3.7337462 3.32549038 4.9375 6.375 C5.06746701 11.83361444 1.44760283 15.88958428 -2 19.8125 C-22.82604197 44.8509291 -36.55325394 76.23090002 -43 108 C-43.16226074 108.75587402 -43.32452148 109.51174805 -43.49169922 110.29052734 C-54.26207513 162.27509714 -41.05779358 218.87209379 -12.38916016 262.93115234 C-8.86544918 268.17894264 -5.01595597 273.11917204 -1 278 C-0.30003906 278.8765625 0.39992187 279.753125 1.12109375 280.65625 C5.6087482 286.04493449 10.15415492 290.23320997 17.33366621 291.3692714 C19.96059911 291.50897732 22.56104539 291.52675339 25.1915741 291.49879456 C26.19126844 291.50417911 27.19096279 291.50956366 28.2209509 291.51511139 C31.55665148 291.5283414 34.89161082 291.51325871 38.22729492 291.49829102 C40.6242761 291.50211546 43.02125498 291.50773557 45.41822815 291.51501465 C51.24357567 291.52851066 57.06871386 291.52407208 62.89406034 291.51237936 C69.68047139 291.50007133 76.46676519 291.51290359 83.2531623 291.52793955 C95.36108143 291.55437079 107.46895788 291.56526049 119.5769043 291.56420898 C120.66271596 291.5641215 120.66271596 291.5641215 121.77046321 291.56403225 C124.70371756 291.56376638 127.6369719 291.56344909 130.57022623 291.56306899 C138.65155439 291.56210201 146.73288126 291.56343183 154.81420898 291.56616211 C155.5381071 291.566402 156.26200522 291.56664189 157.00783964 291.56688906 C169.07554048 291.5712947 181.14320168 291.58752201 193.21087915 291.6113829 C199.98331016 291.62419155 206.75562799 291.63007816 213.52806664 291.61987495 C219.89171508 291.61035258 226.25521662 291.61385793 232.61885643 291.62744904 C234.95658418 291.62986098 237.29432371 291.62709949 239.63203812 291.61884117 C242.81800709 291.60825727 246.00342595 291.61594316 249.18937683 291.62818909 C250.11874705 291.62061303 251.04811727 291.61303698 252.00565022 291.60523134 C256.80736892 291.64448744 260.12847962 291.81878683 264 295 C265.54586876 298.09173752 265.29359521 300.59429552 265 304 C263.59434605 306.19481659 263.59434605 306.19481659 261 308 C257.7296383 308.59962408 254.49492365 308.53922749 251.17796326 308.50793457 C250.1695858 308.51417453 249.16120834 308.5204145 248.12227398 308.52684355 C244.73289162 308.54283725 241.34422208 308.53014369 237.95483398 308.51757812 C235.52876871 308.52299663 233.10270672 308.53011775 230.676651 308.53881836 C224.76318919 308.55519369 218.84991337 308.55275501 212.93645667 308.5411678 C208.12684653 308.53213423 203.31729327 308.53090915 198.50767708 308.53526306 C197.8231054 308.53587599 197.13853373 308.53648893 196.43321745 308.53712043 C195.04243062 308.53839936 193.6516438 308.53969621 192.26085699 308.5410108 C179.21171606 308.55242298 166.16268743 308.53929606 153.11356492 308.51780933 C141.9313664 308.49996572 130.74933413 308.50301853 119.56713867 308.52148438 C106.57555294 308.54292822 93.58406595 308.55129482 80.59246498 308.53903532 C79.20465443 308.53776118 77.81684386 308.5365037 76.42903328 308.53526306 C75.40487594 308.53433741 75.40487594 308.53433741 74.36002855 308.53339306 C69.5631143 308.52994857 64.76626295 308.53574956 59.96935844 308.54518127 C53.49900642 308.55762359 47.02889332 308.54866418 40.55856895 308.52560425 C38.18789437 308.52033007 35.81719334 308.52180869 33.44652939 308.53065491 C30.20097601 308.54164563 26.95641315 308.52780291 23.71092224 308.50793457 C22.31564408 308.5213189 22.31564408 308.5213189 20.89217848 308.53497362 C7.36319658 308.3752114 -2.01048749 302.19560055 -11.22021484 292.8894043 C-31.56135406 271.29542949 -45.31272608 242.04862293 -54 214 C-54.35336426 212.86908936 -54.35336426 212.86908936 -54.71386719 211.71533203 C-72.27109345 154.19725769 -63.62135026 92.71350997 -35.99414062 40.02026367 C-31.25855845 31.21341902 -26.03188468 22.96865019 -20 15 C-19.50129395 14.33806641 -19.00258789 13.67613281 -18.48876953 12.99414062 C-8.10758755 -0.69892996 -8.10758755 -0.69892996 0 0 Z " fill="#000000" transform="translate(95,140)"/>
<path d="M0 0 C2.4375 1.5625 2.4375 1.5625 4 4 C4.6875 7.25 4.6875 7.25 4 11 C-1.73216312 19.456842 -10.46641968 26.59194375 -17.68359375 33.78125 C-19.10870413 35.20449244 -20.53359176 36.62795794 -21.95826721 38.05163574 C-25.68617009 41.77574302 -29.41706756 45.49683584 -33.14862061 49.21728516 C-36.9648443 53.02323076 -40.77819517 56.83205245 -44.59179688 60.640625 C-52.05840678 68.09654981 -59.528187 75.54928963 -67 83 C-66.78846786 83.75563232 -66.57693573 84.51126465 -66.35899353 85.28979492 C-66.08446854 86.28084229 -65.80994354 87.27188965 -65.52709961 88.29296875 C-65.11698891 89.76672974 -65.11698891 89.76672974 -64.69859314 91.27026367 C-62.41717212 100.18486286 -63.70985787 108.91659661 -68 117 C-73.04240459 124.47065933 -79.36962903 128.92717861 -87.94921875 131.609375 C-96.59420394 133.25603885 -104.7702212 131.72165913 -113 129 C-113.69867188 129.71027344 -114.39734375 130.42054688 -115.1171875 131.15234375 C-116.02726562 132.07144531 -116.93734375 132.99054688 -117.875 133.9375 C-118.77992188 134.85402344 -119.68484375 135.77054688 -120.6171875 136.71484375 C-123.2840313 139.27239068 -124.19160136 139.89221352 -127.8125 140.375 C-131 140 -131 140 -133.875 137.875 C-136 135 -136 135 -136.75 132.1875 C-135.24554433 125.7935634 -129.52635559 121.50632747 -125 117 C-125.2165625 116.34515625 -125.433125 115.6903125 -125.65625 115.015625 C-129.0551951 103.87463829 -129.58531406 93.52374147 -124 83 C-118.95759541 75.52934067 -112.63037097 71.07282139 -104.05078125 68.390625 C-101.48787387 67.90245216 -99.0469881 67.79169621 -96.4375 67.75 C-95.48746094 67.72421875 -94.53742188 67.6984375 -93.55859375 67.671875 C-90.25384197 67.97659415 -87.46207709 68.62778428 -84.27758789 69.52050781 C-83.28876114 69.7959845 -82.29993439 70.07146118 -81.28114319 70.35528564 C-80.52836594 70.56804138 -79.77558868 70.78079712 -79 71 C-78.12747589 70.12525528 -77.25495178 69.25051056 -76.35598755 68.34925842 C-68.14760695 60.12063825 -59.93661152 51.89463543 -51.72302437 43.6712122 C-47.50005759 39.44301868 -43.27802941 35.2138966 -39.05810547 30.98266602 C-34.98841329 26.90213759 -30.91630918 22.82403076 -26.84249496 18.74761772 C-25.28583843 17.18910827 -23.73006474 15.62971652 -22.17517471 14.06944466 C-20.00336545 11.89041523 -17.82848644 9.71449592 -15.65283203 7.53930664 C-15.00547089 6.88835022 -14.35810974 6.2373938 -13.69113159 5.56671143 C-13.09939148 4.97634598 -12.50765137 4.38598053 -11.89797974 3.77772522 C-11.12643901 3.0048018 -11.12643901 3.0048018 -10.3393116 2.21626377 C-7.17210733 -0.65995698 -4.1177297 -0.3549767 0 0 Z M-110.5 92.3125 C-112.46301038 97.13823386 -113.15329849 100.96565318 -111.26953125 105.921875 C-108.64199789 110.94099995 -105.3669131 114.21102897 -100 116 C-93.53291918 116.5389234 -90.30406103 115.77404343 -85 112 C-80.98338618 107.66628509 -79.56099559 104.17409969 -79.66015625 98.19140625 C-80.39549501 93.44973904 -83.02020946 89.7106928 -86.609375 86.609375 C-90.16642703 84.29239615 -93.70527029 83.3074672 -97.94921875 83.5546875 C-103.26298573 84.70853404 -107.54384891 87.77418353 -110.5 92.3125 Z " fill="#000000" transform="translate(352,188)"/>
<path d="M0 0 C1.28043938 -0.00856522 1.28043938 -0.00856522 2.58674622 -0.01730347 C3.97934158 -0.01898026 3.97934158 -0.01898026 5.40007019 -0.02069092 C6.38427444 -0.02565582 7.3684787 -0.03062073 8.38250732 -0.03573608 C11.63861287 -0.05034157 14.89466969 -0.05715697 18.15080261 -0.06268311 C20.41518149 -0.06843579 22.67956036 -0.07419351 24.94393921 -0.07995605 C29.69266486 -0.09046139 34.44137361 -0.09630715 39.19010925 -0.09979248 C45.26972247 -0.10527684 51.34911169 -0.12930579 57.42865467 -0.15776443 C62.10671641 -0.17640384 66.78472432 -0.18159711 71.46282005 -0.18312836 C73.70387179 -0.18615235 75.94492263 -0.19417229 78.18593788 -0.20731354 C81.32389415 -0.22440124 84.4613048 -0.22248696 87.59928894 -0.21600342 C88.98277527 -0.22982559 88.98277527 -0.22982559 90.39421082 -0.243927 C96.51412829 -0.20439177 101.62137852 0.49515299 106.43595886 4.64044189 C111.31570007 11.10189233 110.97054715 16.49232868 111.06877136 24.32794189 C111.12484558 25.9956665 111.12484558 25.9956665 111.18205261 27.69708252 C111.24806519 33.89126313 110.80800709 38.32801537 107.36027527 43.5479126 C102.03697143 48.63491977 96.31082496 48.57697977 89.39323425 48.54449463 C87.85796837 48.55478951 87.85796837 48.55478951 86.29168701 48.56529236 C82.91645847 48.58355768 79.54169486 48.57972312 76.16642761 48.57403564 C73.8152247 48.57859753 71.46402312 48.58390312 69.11282349 48.58992004 C64.18768391 48.59885063 59.26270649 48.59642846 54.33757019 48.58648682 C48.03145877 48.57499694 41.72590729 48.5952098 35.41986942 48.62440395 C30.5650681 48.64276494 25.71040099 48.64247365 20.85557365 48.63676643 C18.53079378 48.63661321 16.20600482 48.64265835 13.88125801 48.65505791 C10.62838406 48.66996369 7.37654495 48.65929288 4.123703 48.64215088 C3.16711792 48.65181885 2.21053284 48.66148682 1.22496033 48.67144775 C-4.81006336 48.60497621 -8.37373412 47.68334367 -13.30622864 44.14044189 C-18.22216502 38.09312307 -17.88023612 32.13869522 -17.74372864 24.57794189 C-17.75081848 23.46741455 -17.75790833 22.35688721 -17.76521301 21.21270752 C-17.71390368 14.61748451 -17.40820806 9.62293079 -12.84138489 4.49591064 C-8.47094339 1.02969842 -5.47673411 0.0220332 0 0 Z M-1.30622864 16.14044189 C-1.30622864 21.42044189 -1.30622864 26.70044189 -1.30622864 32.14044189 C30.37377136 32.14044189 62.05377136 32.14044189 94.69377136 32.14044189 C94.69377136 26.86044189 94.69377136 21.58044189 94.69377136 16.14044189 C63.01377136 16.14044189 31.33377136 16.14044189 -1.30622864 16.14044189 Z " fill="#000000" transform="translate(209.3062286376953,351.85955810546875)"/>
<path d="M0 0 C1.3569976 -0.01925285 1.3569976 -0.01925285 2.7414093 -0.03889465 C3.72159531 -0.04628159 4.70178131 -0.05366852 5.71166992 -0.0612793 C7.22116463 -0.07338692 7.22116463 -0.07338692 8.76115417 -0.08573914 C10.89381179 -0.09958522 13.02649161 -0.11030502 15.15917969 -0.11816406 C18.41864087 -0.13537398 21.67708714 -0.17925558 24.9362793 -0.22338867 C27.00723537 -0.23351572 29.07820008 -0.24203178 31.14916992 -0.2487793 C32.12328323 -0.26628738 33.09739655 -0.28379547 34.10102844 -0.30183411 C38.4770618 -0.28782899 40.94272041 -0.24224318 44.74536133 2.07861328 C46.77769616 4.34188329 47.29152932 5.1835895 47.19213867 8.17700195 C47.19407227 9.16700195 47.19407227 9.16700195 47.19604492 10.17700195 C46.31683388 13.28152645 45.26955514 14.25855945 42.62963867 16.17700195 C39.12335591 16.78029487 35.64845516 16.71318255 32.09838867 16.6730957 C30.55628723 16.67527855 30.55628723 16.67527855 28.98303223 16.67750549 C26.81100631 16.67584666 24.63896862 16.66428716 22.46704102 16.64355469 C19.14182624 16.61460805 15.8182064 16.62294502 12.49291992 16.63598633 C10.38223509 16.62974863 8.27155529 16.62135745 6.16088867 16.6105957 C5.1660144 16.61353134 4.17114014 16.61646698 3.14611816 16.61949158 C2.21835571 16.6068074 1.29059326 16.59412323 0.3347168 16.58105469 C-0.47928589 16.5756517 -1.29328857 16.57024872 -2.13195801 16.56468201 C-4.94751142 16.0770425 -6.3143016 15.14119329 -8.37036133 13.17700195 C-9.47409511 9.20356034 -9.78579715 7.08700424 -8.05786133 3.30200195 C-5.54122886 0.13290921 -3.87697164 0.04784693 0 0 Z " fill="#000000" transform="translate(401.370361328125,279.822998046875)"/>
<path d="M0 0 C0.66 -0.01289062 1.32 -0.02578125 2 -0.0390625 C5.27072824 1.04692148 6.20495012 2.69686368 8 5.625 C8.58359836 9.09590735 8.53686639 12.52247708 8.49609375 16.03515625 C8.49754898 17.03961288 8.49900421 18.04406952 8.50050354 19.07896423 C8.49884662 21.19793607 8.48730863 23.31692019 8.46655273 25.43579102 C8.43756952 28.67971847 8.44595428 31.92201406 8.45898438 35.16601562 C8.45274758 37.22657044 8.4443571 39.2871201 8.43359375 41.34765625 C8.43652939 42.31751968 8.43946503 43.28738312 8.44248962 44.28663635 C8.42346336 45.64340736 8.42346336 45.64340736 8.40405273 47.02758789 C8.39864975 47.82080948 8.39324677 48.61403107 8.38768005 49.43128967 C7.89533655 52.21724428 6.94061648 53.58587097 5 55.625 C1.02655839 56.72873378 -1.08999772 57.04043583 -4.875 55.3125 C-7 53.625 -7 53.625 -8 51.625 C-8.10954636 50.17113984 -8.15900992 48.71250905 -8.17700195 47.25463867 C-8.18983719 46.3499736 -8.20267242 45.44530853 -8.21589661 44.51322937 C-8.22328354 43.53304337 -8.23067047 42.55285736 -8.23828125 41.54296875 C-8.246353 40.53663895 -8.25442474 39.53030914 -8.26274109 38.4934845 C-8.27658717 36.36082689 -8.28730697 34.22814706 -8.29516602 32.09545898 C-8.31237593 28.8359978 -8.35625753 25.57755153 -8.40039062 22.31835938 C-8.41051767 20.2474033 -8.41903374 18.17643859 -8.42578125 16.10546875 C-8.44328934 15.13135544 -8.46079742 14.15724213 -8.47883606 13.15361023 C-8.46483323 8.77829129 -8.42005489 6.31275966 -6.09838867 2.51147461 C-3.84780377 0.4881739 -2.98235783 -0.05824918 0 0 Z " fill="#000000" transform="translate(256,95.375)"/>
<path d="M0 0 C0.98226059 0.00091644 1.96452118 0.00183289 2.97654724 0.0027771 C5.04846035 0.00880725 7.12036498 0.02453558 9.19213867 0.04931641 C12.3634451 0.08584939 15.5335831 0.09033542 18.70507812 0.08984375 C20.72006218 0.09967445 22.73503833 0.11133125 24.75 0.125 C26.17198448 0.12833847 26.17198448 0.12833847 27.62269592 0.13174438 C28.94943581 0.15088394 28.94943581 0.15088394 30.30297852 0.17041016 C31.46616356 0.18184555 31.46616356 0.18184555 32.65284729 0.19351196 C35.09713013 0.49673113 36.70758765 1.19210382 38.80859375 2.4609375 C40.89018395 5.13726776 40.80446966 6.57847418 40.68359375 10.0234375 C39.80859375 13.4609375 39.80859375 13.4609375 38.04797363 15.15052795 C35.49182266 16.64630125 34.04413415 16.84547173 31.10351562 16.86499023 C30.17575317 16.87767441 29.24799072 16.89035858 28.29211426 16.90342712 C27.29723999 16.90049149 26.30236572 16.89755585 25.27734375 16.89453125 C24.24927612 16.8997731 23.2212085 16.90501495 22.1619873 16.91041565 C19.98999942 16.91683452 17.81797676 16.91550062 15.64599609 16.90698242 C12.3206608 16.8984684 8.99704076 16.92724349 5.671875 16.95898438 C3.56119843 16.96059636 1.45051882 16.96001891 -0.66015625 16.95703125 C-1.65503052 16.96826523 -2.64990479 16.97949921 -3.67492676 16.99107361 C-10.55766672 16.92147967 -10.55766672 16.92147967 -13.81420898 14.55493164 C-15.29012546 12.3108374 -15.75911398 11.12729498 -15.75390625 8.4609375 C-15.77582031 7.8009375 -15.79773437 7.1409375 -15.8203125 6.4609375 C-13.54591375 -0.77193305 -6.17542843 -0.09381663 0 0 Z " fill="#000000" transform="translate(79.19140625,279.5390625)"/>
<path d="M0 0 C2.375 1.0625 2.375 1.0625 4 3 C4.83043491 6.26242286 5.3994206 8.74312174 4.36450195 11.99975586 C2.45697094 14.79603455 0.23613033 15.91239247 -2.70703125 17.56640625 C-3.85107422 18.21673828 -4.99511719 18.86707031 -6.17382812 19.53710938 C-7.38654625 20.21254939 -8.59943852 20.88767683 -9.8125 21.5625 C-11.01423879 22.24053265 -12.2154173 22.91955934 -13.41601562 23.59960938 C-15.63361139 24.85346616 -17.85380932 26.1027396 -20.07739258 27.34594727 C-21.97271391 28.41860636 -23.84717468 29.52934023 -25.6940918 30.68334961 C-28.75999645 32.43395033 -30.52235263 32.57960789 -34 32 C-37.32878632 29.53959272 -38.79301948 28.10389613 -39.5625 24 C-38.86113621 20.2593931 -37.5654865 18.79236809 -35 16 C-32.29858398 14.17895508 -32.29858398 14.17895508 -29.24609375 12.51953125 C-28.14458984 11.91302734 -27.04308594 11.30652344 -25.90820312 10.68164062 C-24.76287109 10.06482422 -23.61753906 9.44800781 -22.4375 8.8125 C-20.16493714 7.56979176 -17.89278258 6.3263365 -15.62109375 5.08203125 C-14.6148999 4.53780518 -13.60870605 3.9935791 -12.57202148 3.43286133 C-5.53795376 -0.48578542 -5.53795376 -0.48578542 0 0 Z " fill="#000000" transform="translate(419,188)"/>
<path d="M0 0 C3.10205078 1.31347656 3.10205078 1.31347656 6.1953125 3.140625 C7.88720703 4.12869141 7.88720703 4.12869141 9.61328125 5.13671875 C10.19029785 5.48395996 10.76731445 5.83120117 11.36181641 6.18896484 C13.11941053 7.24663641 14.88807618 8.28322511 16.66015625 9.31640625 C30.13179707 17.26359413 30.13179707 17.26359413 32 21 C32.54035146 25.05263598 32.34199395 26.53730231 29.875 29.875 C26.40880813 32.4369679 25.22141803 32.44785181 21 32 C17.81201172 30.59472656 17.81201172 30.59472656 14.4296875 28.640625 C13.82617462 28.29497498 13.22266174 27.94932495 12.6008606 27.59320068 C11.3317669 26.86284703 10.06624946 26.12624745 8.80419922 25.38378906 C6.88163531 24.25389957 4.94806797 23.14512641 3.01171875 22.0390625 C-10.24196494 14.37517653 -10.24196494 14.37517653 -11.9375 9.0625 C-12.01221891 5.40127319 -11.21363944 3.8695326 -9 1 C-5.92132532 -0.53933734 -3.40589105 -0.23427933 0 0 Z " fill="#000000" transform="translate(100,188)"/>
<path d="M0 0 C2.14361669 1.19803845 4.2311681 2.45941862 6.31396484 3.76025391 C7.05799561 4.21360107 7.80202637 4.66694824 8.56860352 5.1340332 C10.04480745 6.03368777 11.51860417 6.93730634 12.98974609 7.84521484 C15.56514382 9.41670753 18.19129306 10.89438989 20.81396484 12.38525391 C24.31486267 14.52402766 27.08200785 16.32524264 29.00146484 20.07275391 C29.00146484 23.85186006 28.83436199 26.07968424 26.37646484 29.01025391 C23.06212853 30.49298331 20.61777249 30.3358646 17.00146484 30.07275391 C13.69995117 28.68334961 13.69995117 28.68334961 10.33349609 26.74853516 C9.73139816 26.40525681 9.12930023 26.06197845 8.50895691 25.70829773 C7.24520227 24.98325615 5.98565055 24.25084379 4.73022461 23.51147461 C2.8188022 22.38809691 0.89336112 21.29255641 -1.03564453 20.19970703 C-11.65113863 14.07111299 -11.65113863 14.07111299 -14.99853516 9.07275391 C-15.49522743 5.59590801 -15.4237527 3.82194672 -13.68603516 0.76025391 C-9.77176808 -3.15401317 -4.70372478 -2.18235362 0 0 Z " fill="#000000" transform="translate(394.99853515625,357.92724609375)"/>
<path d="M0 0 C2.562964 2.23225897 2.93752331 3.58051369 3.4375 6.9375 C2.88823524 10.78235334 1.60721402 12.15511254 -1 15 C-3.48608398 16.71337891 -3.48608398 16.71337891 -6.24609375 18.2265625 C-7.24833984 18.7834375 -8.25058594 19.3403125 -9.28320312 19.9140625 C-10.84458008 20.76097656 -10.84458008 20.76097656 -12.4375 21.625 C-14.49889034 22.76267224 -16.56009471 23.90068153 -18.62109375 25.0390625 C-19.5330249 25.53615723 -20.44495605 26.03325195 -21.38452148 26.54541016 C-23.15778167 27.53160302 -24.90124304 28.57299021 -26.61352539 29.66162109 C-29.91595936 31.51368688 -32.27441212 31.40642777 -36 31 C-38.375 29.9375 -38.375 29.9375 -40 28 C-41 24.625 -41 24.625 -41 21 C-38.30307998 16.86852225 -35.32044458 14.70771732 -31.0625 12.30078125 C-29.92039062 11.64916016 -28.77828125 10.99753906 -27.6015625 10.32617188 C-26.40112025 9.65480738 -25.20059865 8.98358476 -24 8.3125 C-22.79895863 7.63047314 -21.59843244 6.9475382 -20.3984375 6.26367188 C-17.27454393 4.49193765 -14.14816673 2.7282262 -11 1 C-10.29101562 0.59934326 -9.58203125 0.19868652 -8.8515625 -0.21411133 C-5.70500002 -1.54965782 -3.22603203 -0.82117179 0 0 Z " fill="#000000" transform="translate(129,357)"/>
<path d="M0 0 C2.3125 1.625 2.3125 1.625 4 4 C4.54222227 9.59422928 3.44997765 12.84104205 0.67578125 17.66796875 C0.3325029 18.27006668 -0.01077545 18.87216461 -0.36445618 19.49250793 C-1.08949775 20.75626257 -1.82191012 22.0158143 -2.5612793 23.27124023 C-3.684657 25.18266265 -4.7801975 27.10810373 -5.87304688 29.03710938 C-11.98143737 39.61760838 -11.98143737 39.61760838 -17 43 C-21.0786507 43.76474701 -22.49101258 43.34654463 -25.9375 41 C-28.2009695 37.70768073 -28.32303108 36.30241544 -27.71508789 32.43457031 C-26.16327966 27.15132289 -23.08566868 22.55327931 -20.25 17.875 C-19.62867188 16.81667969 -19.00734375 15.75835937 -18.3671875 14.66796875 C-8.11368164 -2.57263076 -8.11368164 -2.57263076 0 0 Z " fill="#000000" transform="translate(352,121)"/>
<path d="M0 0 C5.08889168 5.24819612 8.56765372 11.60278776 12.25 17.875 C12.88679688 18.92558594 13.52359375 19.97617188 14.1796875 21.05859375 C17.53334726 26.75981534 20.09924911 31.29686756 20 38 C17.60220738 41.48769835 16.17642926 42.77941951 12 43.5625 C8.2593931 42.86113621 6.79236809 41.5654865 4 39 C2.17895508 36.29858398 2.17895508 36.29858398 0.51953125 33.24609375 C-0.08697266 32.14458984 -0.69347656 31.04308594 -1.31835938 29.90820312 C-1.93517578 28.76287109 -2.55199219 27.61753906 -3.1875 26.4375 C-4.43020824 24.16493714 -5.6736635 21.89278258 -6.91796875 19.62109375 C-7.46219482 18.6148999 -8.0064209 17.60870605 -8.56713867 16.57202148 C-10.02026006 13.88332917 -10.02026006 13.88332917 -12 11 C-12.67092652 4.84984026 -12.67092652 4.84984026 -10.125 1.625 C-6.3829353 -1.23657888 -4.56966482 -1.34401906 0 0 Z " fill="#000000" transform="translate(168,121)"/>
<path d="M0 0 C2.4375 1.5 2.4375 1.5 4 4 C4.93969726 10.57788082 4.93969726 10.57788082 2.71362305 13.94677734 C0.93347236 15.88973271 -0.9214119 17.66933073 -2.875 19.4375 C-3.52597656 20.06076172 -4.17695313 20.68402344 -4.84765625 21.32617188 C-10.64576958 26.81943594 -10.64576958 26.81943594 -14.8125 27.375 C-18 27 -18 27 -20.875 24.875 C-23 22 -23 22 -23.75 19.1875 C-22.5956189 14.28138031 -19.48472275 11.5117361 -16 8 C-15.35546875 7.3296875 -14.7109375 6.659375 -14.046875 5.96875 C-9.32746615 1.13036445 -7.11398915 -0.61327493 0 0 Z " fill="#000000" transform="translate(390,150)"/>
<path d="M0 0 C3.0008374 2.00843448 5.46512708 4.44032402 8 7 C8.66902344 7.64453125 9.33804688 8.2890625 10.02734375 8.953125 C15.81108021 14.5831016 15.81108021 14.5831016 16.375 18.8125 C16 22 16 22 13.875 24.875 C11 27 11 27 8.1875 27.75 C3.25475904 26.58935507 0.54991382 23.47733194 -3 20 C-3.75539063 19.35160156 -4.51078125 18.70320313 -5.2890625 18.03515625 C-10.61727889 13.28118227 -10.61727889 13.28118227 -11.640625 9.85546875 C-11.81321448 6.53312126 -11.18925978 4.30281564 -9.4375 1.5 C-5.89383548 -0.68071663 -4.10900306 -0.75331723 0 0 Z " fill="#000000" transform="translate(129,150)"/>
<path d="M0 0 C3.82253861 1.53694237 5.24421792 2.8906822 7.390625 6.36328125 C7.86834545 9.7073244 7.73652062 11.61044961 6.328125 14.67578125 C3.44536355 17.18657348 1.18864981 17.11957778 -2.609375 17.36328125 C-5.77522034 16.86963468 -8.79065331 16.02383637 -11.859375 15.11328125 C-12.66117187 14.89542969 -13.46296875 14.67757813 -14.2890625 14.453125 C-21.20979494 12.47411957 -21.20979494 12.47411957 -23.609375 9.36328125 C-24.359375 2.61328125 -24.359375 2.61328125 -22.109375 -1.13671875 C-15.3949461 -5.16537609 -7.07757653 -1.74073998 0 0 Z " fill="#000000" transform="translate(434.609375,326.63671875)"/>
<path d="M0 0 C2.25389302 3.75648836 1.98380069 6.14579381 1.5 10.5 C-1.50426414 14.39475648 -5.70138969 15.01412357 -10.25 16.25 C-11.03632812 16.48332031 -11.82265625 16.71664063 -12.6328125 16.95703125 C-17.58417154 18.33058102 -21.39271652 18.7522351 -26.5 17.5 C-29.062964 15.26774103 -29.43752331 13.91948631 -29.9375 10.5625 C-29.3799911 6.65993772 -28.26438788 5.29554845 -25.5 2.5 C-18.27846173 -0.40359085 -7.15989058 -4.29593435 0 0 Z " fill="#000000" transform="translate(99.5,325.5)"/>
<path d="M0 0 C3.29180115 1.317557 4.43092036 2.13549334 6.07421875 5.23046875 C6.46147897 8.84489745 6.65105703 11.22414652 4.8203125 14.41796875 C3.07421875 16.23046875 3.07421875 16.23046875 1.0859375 16.76171875 C-7.01315911 16.65282333 -16.85136985 15.51671532 -23.30859375 10.30859375 C-24.92578125 8.23046875 -24.92578125 8.23046875 -25.42578125 4.73046875 C-24.85514446 0.73601124 -24.07553251 -0.36089793 -20.92578125 -2.76953125 C-15.15644076 -5.65420149 -5.79700279 -1.53542236 0 0 Z " fill="#000000" transform="translate(94.92578125,235.76953125)"/>
<path d="M0 0 C5.50297236 3.40137709 6.3361189 7.22969271 7.8046875 13.27661133 C10.42938769 24.61768719 10.42938769 24.61768719 7.5 29.5 C3.74351164 31.75389302 1.35420619 31.48380069 -3 31 C-6.89475648 27.99573586 -7.51412357 23.79861031 -8.75 19.25 C-8.98332031 18.46367188 -9.21664062 17.67734375 -9.45703125 16.8671875 C-10.83058102 11.91582846 -11.2522351 8.10728348 -10 3 C-7.07633177 -0.35680426 -4.30565927 -0.61509418 0 0 Z " fill="#000000" transform="translate(211,102)"/>
<path d="M0 0 C2.35899179 3.32006252 2.25671855 5.39047016 1.6875 9.375 C-3.16591409 15.61175433 -11.87639574 16.80407281 -19.34765625 17.765625 C-24.11478855 17.96220778 -24.11478855 17.96220778 -26.3125 17.375 C-28.8517511 14.73917783 -29.28843563 13.59960082 -29.6875 9.875 C-29.27065418 5.98443903 -29.1028984 5.02270757 -26.3125 2.375 C-23.26386298 1.12021862 -20.13573677 0.34285056 -16.9375 -0.4375 C-16.08671875 -0.66630859 -15.2359375 -0.89511719 -14.359375 -1.13085938 C-8.88421934 -2.52523313 -4.87231501 -3.42378892 0 0 Z " fill="#000000" transform="translate(440.3125,234.625)"/>
<path d="M0 0 C2.78605642 1.95776938 3.79835553 3.3042738 4.74609375 6.57421875 C5.08461223 11.14161421 4.02953649 14.82929974 2.75 19.1875 C2.53214844 19.99380859 2.31429688 20.80011719 2.08984375 21.63085938 C0.10630813 28.60803291 0.10630813 28.60803291 -3 31 C-9.75 31.75 -9.75 31.75 -13.5 29.5 C-17.52865734 22.7855711 -14.10402123 14.46820153 -12.36328125 7.390625 C-10.00622132 1.52836706 -6.32975294 -1.07740476 0 0 Z " fill="#000000" transform="translate(307,102)"/>
</svg>
